<?xml version="1.0" encoding="UTF-8" ?>
<!DOCTYPE svg PUBLIC "-//W3C//DTD SVG 1.1//EN" "http://www.w3.org/Graphics/SVG/1.1/DTD/svg11.dtd">
<svg width="1327pt" height="383pt" viewBox="0 0 1327 383" version="1.1" xmlns="http://www.w3.org/2000/svg">
<g id="#ffffffff">
<path fill="#ffffff" opacity="1.00" d=" M 634.04 6.83 C 651.93 4.04 670.22 3.56 688.16 6.24 C 713.61 9.29 738.91 14.68 762.90 23.83 C 780.57 30.39 797.43 38.88 814.72 46.32 C 856.50 65.02 901.12 76.32 945.98 84.73 C 970.53 89.08 995.15 93.10 1019.91 96.08 C 1043.21 98.96 1066.52 101.94 1089.92 103.71 C 1086.22 108.39 1082.40 112.98 1078.86 117.79 C 1039.87 117.65 1000.87 117.55 961.89 117.09 C 958.58 114.80 956.20 111.02 952.04 110.04 C 945.77 108.06 939.90 112.36 936.01 116.87 C 918.44 116.80 900.86 116.91 883.30 116.53 C 880.23 114.39 877.90 110.97 874.03 110.05 C 867.90 108.05 862.21 112.25 858.19 116.44 C 846.73 116.34 835.25 116.35 823.79 116.05 C 823.46 115.92 822.79 115.64 822.45 115.50 C 798.14 70.68 756.48 34.43 707.01 20.55 C 686.92 14.95 665.67 12.43 644.93 15.46 C 606.20 20.19 569.85 38.94 542.04 66.07 C 526.94 80.69 513.97 97.56 504.10 116.14 C 436.41 116.72 368.73 117.13 301.03 117.58 C 295.87 117.43 290.67 117.99 285.54 117.42 C 281.04 111.68 276.46 105.99 271.77 100.39 C 311.84 95.72 351.88 90.49 391.48 82.69 C 419.36 77.05 447.14 70.51 474.04 61.17 C 492.57 55.06 510.48 47.23 528.24 39.17 C 548.60 29.75 569.29 20.65 591.13 15.18 C 605.22 11.41 619.58 8.69 634.04 6.83 Z" />
<path fill="#ffffff" opacity="1.00" d=" M 29.01 117.55 C 92.47 114.63 155.89 111.30 219.15 105.42 C 216.31 109.54 213.10 113.40 210.52 117.70 C 208.69 117.92 206.86 118.13 205.02 118.17 C 144.35 118.41 83.68 118.74 23.01 118.80 C 16.32 118.74 9.63 118.06 2.95 118.59 C 11.58 117.31 20.33 118.13 29.01 117.55 Z" />
<path fill="#ffffff" opacity="1.00" d=" M 1147.83 108.77 C 1195.48 112.55 1243.20 114.97 1290.95 117.26 C 1301.93 118.12 1312.99 117.24 1323.93 118.63 C 1317.30 118.12 1310.68 118.69 1304.07 118.80 C 1254.31 118.76 1204.56 118.52 1154.81 118.32 C 1152.43 115.17 1150.18 111.93 1147.83 108.77 Z" />
<path fill="#ffffff" opacity="1.00" d=" M 237.49 113.68 C 244.33 112.80 251.37 112.75 258.20 113.72 C 265.47 114.80 271.42 120.79 272.48 128.06 C 277.40 158.03 282.07 188.05 286.97 218.03 C 287.19 219.87 287.80 222.02 286.53 223.65 C 284.54 226.06 279.77 224.90 279.73 221.52 C 274.95 191.52 270.09 161.53 265.28 131.53 C 264.83 128.35 263.63 125.00 260.82 123.17 C 257.08 120.61 252.33 120.93 248.02 120.88 C 243.42 120.93 238.33 120.53 234.40 123.37 C 231.56 125.33 230.33 128.76 229.87 132.04 C 225.17 162.03 220.50 192.02 215.76 221.99 C 215.26 226.43 207.19 225.55 208.00 221.00 C 212.98 190.00 217.86 158.98 222.95 128.00 C 224.00 120.64 230.18 114.71 237.49 113.68 Z" />
<path fill="#ffffff" opacity="1.00" d=" M 1107.43 113.59 C 1112.25 112.85 1117.15 113.09 1122.02 113.12 C 1127.50 113.21 1133.40 114.57 1137.34 118.66 C 1140.63 121.96 1141.91 126.64 1142.53 131.13 C 1147.22 161.11 1152.28 191.04 1156.81 221.03 C 1157.46 225.56 1149.79 226.36 1149.32 221.95 C 1144.42 191.61 1139.58 161.25 1134.66 130.91 C 1134.20 127.81 1132.79 124.65 1130.02 122.98 C 1126.15 120.53 1121.39 120.95 1117.03 120.88 C 1112.69 120.91 1107.95 120.64 1104.19 123.17 C 1101.22 125.06 1099.86 128.55 1099.39 131.89 C 1094.72 161.81 1090.01 191.73 1085.33 221.65 C 1085.16 226.33 1076.77 225.79 1077.47 221.04 C 1082.51 189.98 1087.36 158.87 1092.48 127.81 C 1093.61 120.36 1100.01 114.50 1107.43 113.59 Z" />
<path fill="#ffffff" opacity="1.00" d=" M 946.36 120.49 C 948.43 119.48 951.74 120.33 951.95 122.97 C 952.22 126.29 952.23 129.64 951.96 132.96 C 951.72 136.68 945.55 136.93 944.62 133.51 C 944.14 130.33 944.33 127.09 944.42 123.89 C 944.38 122.51 945.01 121.04 946.36 120.49 Z" />
<path fill="#ffffff" opacity="1.00" d=" M 869.37 121.48 C 871.97 120.04 874.55 122.49 874.97 125.00 C 875.37 128.97 874.73 133.00 875.44 136.96 C 876.49 142.45 881.26 147.17 886.90 147.67 C 892.59 148.12 898.32 147.51 904.01 147.94 C 907.64 148.10 909.00 154.15 905.29 155.30 C 902.23 155.83 899.09 155.53 896.01 155.65 C 890.36 155.63 884.40 156.40 879.11 153.95 C 872.44 151.09 868.18 144.13 867.57 137.04 C 867.27 133.01 867.29 128.96 867.42 124.93 C 867.38 123.54 868.00 122.04 869.37 121.48 Z" />
<path fill="#ffffff" opacity="1.00" d=" M 333.34 148.52 C 338.45 147.12 343.79 147.70 349.02 147.59 C 353.35 147.69 357.69 147.36 362.01 147.75 C 365.92 148.27 365.64 154.54 361.89 155.18 C 354.20 155.82 346.45 155.08 338.75 155.52 C 332.09 156.09 326.73 162.38 326.65 168.96 C 326.43 186.60 326.79 204.25 326.48 221.88 C 326.18 226.37 318.31 225.61 318.93 221.06 C 318.85 203.39 318.81 185.72 318.95 168.06 C 319.01 159.38 324.73 150.74 333.34 148.52 Z" />
<path fill="#ffffff" opacity="1.00" d=" M 410.43 148.62 C 415.46 147.02 420.82 147.74 426.01 147.59 C 431.34 147.72 436.71 147.24 442.02 147.96 C 448.77 148.92 454.62 153.82 457.13 160.10 C 459.66 166.10 458.69 172.72 458.87 179.04 C 458.70 184.18 459.25 189.37 458.60 194.48 C 457.74 198.05 451.55 197.62 451.45 193.86 C 451.12 185.28 451.54 176.68 451.27 168.09 C 451.13 164.18 449.83 159.84 446.32 157.66 C 442.68 155.31 438.17 155.60 434.03 155.53 C 428.04 155.58 422.05 155.28 416.06 155.48 C 408.81 155.81 403.15 162.91 403.42 169.97 C 403.41 180.96 403.37 191.96 403.44 202.96 C 403.49 209.71 409.00 216.20 415.91 216.51 C 423.57 216.80 431.25 216.37 438.92 216.71 C 446.07 217.02 453.29 220.86 456.57 227.39 C 459.73 233.41 458.74 240.41 458.86 246.95 C 458.93 252.93 456.65 259.11 451.89 262.91 C 447.25 266.87 440.95 268.10 435.00 267.91 C 423.33 267.81 411.65 268.09 400.00 267.78 C 396.07 267.65 395.81 260.32 399.90 260.36 C 412.59 259.89 425.29 260.25 437.98 260.01 C 444.74 259.84 450.96 253.93 450.74 247.03 C 450.62 240.70 452.14 232.97 446.82 228.23 C 441.80 223.29 434.30 225.01 428.00 224.89 C 420.63 224.64 412.60 226.09 405.91 222.16 C 399.26 218.32 396.08 210.40 396.08 202.97 C 395.98 191.64 395.90 180.31 395.91 168.98 C 395.95 160.08 401.89 151.40 410.43 148.62 Z" />
<path fill="#ffffff" opacity="1.00" d=" M 505.39 148.48 C 513.44 146.70 521.79 147.98 529.97 147.58 C 537.19 147.11 545.18 149.36 549.27 155.75 C 555.39 164.62 552.82 175.92 553.38 185.98 C 552.86 194.97 554.87 204.51 551.15 213.03 C 548.44 219.17 542.56 223.89 535.81 224.65 C 530.23 225.18 524.62 224.79 519.03 224.91 C 513.81 224.81 508.35 225.48 503.44 223.31 C 495.51 219.99 490.35 211.55 490.40 203.04 C 490.36 191.67 490.34 180.30 490.41 168.93 C 490.50 159.89 496.64 151.10 505.39 148.48 M 506.36 156.52 C 501.18 158.80 497.78 164.35 497.92 169.98 C 497.92 180.99 497.83 192.00 497.97 203.00 C 497.99 210.29 504.46 217.14 511.90 216.77 C 519.29 216.66 526.69 216.85 534.06 216.43 C 540.71 215.88 545.89 209.60 545.80 203.04 C 545.87 191.67 545.88 180.29 545.79 168.93 C 545.77 162.45 540.57 156.15 533.95 155.71 C 528.30 155.35 522.63 155.60 516.97 155.43 C 513.42 155.46 509.68 154.99 506.36 156.52 Z" />
<path fill="#ffffff" opacity="1.00" d=" M 586.20 148.02 C 587.73 147.45 589.40 147.63 591.02 147.57 C 603.01 147.65 615.00 147.53 627.00 147.62 C 632.77 147.65 638.70 149.90 642.37 154.49 C 645.98 158.77 647.43 164.47 647.37 169.98 C 647.38 186.65 647.37 203.31 647.38 219.98 C 647.46 221.79 647.06 224.17 645.01 224.69 C 642.57 225.67 639.53 223.83 639.87 221.07 C 639.79 204.06 640.01 187.04 639.99 170.03 C 640.19 162.54 633.65 155.43 626.01 155.73 C 614.64 155.74 603.28 155.85 591.91 155.88 C 591.87 177.63 591.97 199.37 591.86 221.11 C 592.21 224.05 588.76 225.80 586.33 224.53 C 584.55 223.82 584.35 221.71 584.38 220.07 C 584.36 197.70 584.39 175.33 584.36 152.97 C 584.38 151.21 584.32 148.91 586.20 148.02 Z" />
<path fill="#ffffff" opacity="1.00" d=" M 683.24 148.20 C 684.65 147.40 686.36 147.68 687.93 147.57 C 698.94 147.65 709.95 147.51 720.96 147.64 C 727.01 147.71 733.26 149.92 737.29 154.60 C 742.36 160.41 743.00 168.96 741.05 176.16 C 739.13 183.05 732.87 188.13 725.95 189.42 C 716.06 191.08 705.86 188.79 696.04 190.78 C 685.79 193.23 683.69 208.14 691.62 214.32 C 697.04 218.86 704.51 217.13 710.97 217.27 C 717.24 216.89 724.54 218.31 729.67 213.73 C 732.99 211.20 734.02 206.98 734.33 203.02 C 734.45 198.93 741.58 198.82 741.81 202.91 C 742.22 208.99 740.20 215.47 735.54 219.57 C 731.35 223.42 725.55 224.92 719.97 224.89 C 712.97 224.88 705.97 225.01 698.98 224.82 C 691.94 224.59 684.74 221.03 681.36 214.66 C 678.29 208.74 678.13 201.49 680.28 195.24 C 682.87 187.91 690.48 183.36 698.03 182.94 C 705.91 182.49 713.83 183.04 721.72 182.67 C 728.56 182.17 734.56 175.95 734.31 169.00 C 734.60 161.78 728.05 155.57 720.99 155.45 C 709.00 155.31 697.00 155.49 685.01 155.38 C 681.17 155.78 680.48 149.92 683.24 148.20 Z" />
<path fill="#ffffff" opacity="1.00" d=" M 775.11 148.09 C 776.87 147.13 779.60 147.52 780.48 149.51 C 781.02 150.92 780.85 152.47 780.93 153.96 C 780.91 170.31 780.86 186.67 780.95 203.02 C 780.83 210.08 787.02 216.55 794.13 216.56 C 801.38 216.63 808.65 216.62 815.91 216.56 C 820.95 216.58 825.59 213.25 827.59 208.70 C 829.27 205.03 828.77 200.91 828.85 197.01 C 828.89 181.66 828.72 166.31 828.93 150.97 C 828.73 147.38 834.24 146.37 835.85 149.28 C 836.55 150.75 836.29 152.46 836.40 154.04 C 836.31 170.69 836.46 187.34 836.33 203.98 C 836.27 211.98 831.60 220.03 824.11 223.20 C 818.71 225.58 812.69 224.77 806.98 224.91 C 801.74 224.79 796.47 225.19 791.26 224.63 C 781.35 223.11 773.52 213.89 773.42 203.90 C 773.31 186.92 773.41 169.93 773.37 152.95 C 773.39 151.23 773.36 149.04 775.11 148.09 Z" />
<path fill="#ffffff" opacity="1.00" d=" M 946.21 148.16 C 948.49 146.73 952.38 147.97 952.21 151.04 C 952.36 174.36 952.28 197.69 952.24 221.02 C 952.94 226.19 943.90 226.10 944.60 220.97 C 944.49 198.32 944.60 175.66 944.55 153.00 C 944.58 151.30 944.46 149.11 946.21 148.16 Z" />
<path fill="#ffffff" opacity="1.00" d=" M 998.38 148.49 C 1003.79 147.09 1009.44 147.73 1014.97 147.59 C 1024.30 147.70 1033.64 147.39 1042.96 147.73 C 1047.02 147.93 1047.04 155.04 1042.98 155.27 C 1030.12 155.65 1017.22 155.22 1004.35 155.46 C 999.28 155.65 994.43 158.90 992.47 163.59 C 991.22 166.59 991.49 169.89 991.46 173.06 C 991.55 183.71 991.34 194.37 991.55 205.02 C 991.72 211.70 997.77 217.31 1004.35 217.53 C 1017.22 217.77 1030.11 217.38 1042.98 217.70 C 1046.85 217.80 1046.71 224.58 1042.94 224.77 C 1030.96 225.10 1018.96 224.81 1006.98 224.91 C 1000.80 225.08 994.26 223.66 989.62 219.34 C 985.28 215.55 983.34 209.68 983.38 204.04 C 983.40 191.71 983.29 179.38 983.44 167.06 C 983.57 158.40 990.02 150.56 998.38 148.49 Z" />
<path fill="#ffffff" opacity="1.00" d=" M 869.13 163.05 C 871.86 161.38 875.36 163.91 875.05 166.97 C 875.20 178.99 874.99 191.02 875.13 203.04 C 875.08 210.00 880.82 216.84 887.96 217.03 C 895.30 217.31 902.67 216.83 910.01 217.22 C 913.96 217.23 914.65 223.88 910.81 224.70 C 906.23 225.19 901.62 224.78 897.03 224.91 C 891.04 224.77 884.69 225.64 879.11 222.94 C 871.83 219.66 867.56 211.67 867.41 203.88 C 867.31 191.91 867.41 179.95 867.36 167.98 C 867.37 166.23 867.31 163.99 869.13 163.05 Z" />
<path fill="#ffffff" opacity="1.00" d=" M 235.25 168.41 C 242.45 167.73 249.75 168.17 256.98 168.16 C 261.31 167.76 262.03 175.13 257.85 175.74 C 250.60 176.05 243.30 175.99 236.05 175.77 C 232.31 175.57 231.80 169.47 235.25 168.41 Z" />
<path fill="#ffffff" opacity="1.00" d=" M 1105.22 168.29 C 1112.46 167.91 1119.76 168.04 1127.01 168.22 C 1131.19 168.37 1131.16 175.69 1126.97 175.79 C 1119.97 176.01 1112.95 175.96 1105.96 175.82 C 1101.74 176.03 1101.11 168.91 1105.22 168.29 Z" />
</g>
<g id="#ffffffff">
<path fill="#ffffff" opacity="1.00" d=" M 221.23 242.36 C 272.59 242.54 324.00 242.49 375.37 242.53 C 377.75 248.55 380.95 254.19 384.57 259.54 C 358.13 255.29 331.55 251.83 304.88 249.43 C 283.90 247.23 262.89 245.36 241.84 244.01 C 235.58 243.52 229.25 242.88 222.99 243.69 C 222.17 243.58 221.59 243.13 221.23 242.36 Z" />
<path fill="#ffffff" opacity="1.00" d=" M 838.86 242.51 C 925.56 242.74 1012.26 242.45 1098.96 242.44 C 1105.66 242.49 1112.37 242.18 1119.07 242.62 C 1121.23 242.39 1123.93 243.82 1125.62 241.82 C 1125.53 242.31 1125.51 242.91 1124.95 243.10 C 1095.88 244.02 1066.91 247.04 1037.97 249.85 C 1007.52 252.76 977.19 256.99 947.04 262.15 C 909.37 269.09 871.64 277.73 836.51 293.38 C 820.27 300.55 804.96 309.59 789.81 318.79 C 774.71 327.80 758.78 335.77 741.61 339.92 C 724.76 344.42 707.36 346.46 689.99 347.49 C 682.33 347.40 674.69 349.05 667.06 347.89 C 636.04 346.79 604.22 342.86 576.09 328.88 C 557.90 319.80 541.22 308.01 522.97 299.04 C 502.37 288.73 480.58 280.83 458.29 275.06 C 464.94 264.78 473.02 254.84 475.79 242.62 C 486.82 242.63 497.86 242.51 508.89 242.61 C 517.61 257.20 528.75 270.26 540.91 282.10 C 566.34 306.73 598.30 325.05 633.06 332.43 C 675.54 341.71 721.38 336.26 759.96 315.94 C 792.13 299.02 819.54 273.27 838.86 242.51 Z" />
<path fill="#ffffff" opacity="1.00" d=" M 539.76 319.04 C 547.70 323.50 555.58 328.08 563.84 331.95 C 561.67 333.87 558.74 334.67 556.30 336.19 C 535.98 347.39 518.15 362.47 500.92 377.87 C 513.88 358.27 526.72 338.59 539.76 319.04 Z" />
<path fill="#ffffff" opacity="1.00" d=" M 782.28 331.80 C 790.34 327.91 798.16 323.53 805.89 319.02 C 819.02 338.50 831.82 358.21 844.74 377.83 C 825.55 360.64 805.51 343.83 782.22 332.44 C 782.23 332.28 782.26 331.96 782.28 331.80 Z" />
</g>
</svg>
